<?xml version="1.0" encoding="utf-8"?>
<!-- Generator: Adobe Illustrator 27.0.1, SVG Export Plug-In . SVG Version: 6.00 Build 0)  -->
<svg version="1.1" id="Layer_1" xmlns="http://www.w3.org/2000/svg" xmlns:xlink="http://www.w3.org/1999/xlink" x="0px" y="0px"
	 viewBox="0 0 512 512" style="enable-background:new 0 0 512 512;" xml:space="preserve">
<style type="text/css">
	.st0{fill:#1B3589;}
</style>
<g id="Grupo_30" transform="translate(860.898 253.436) rotate(90)">
	<path id="Trazado_253-2" class="st0" d="M74.6,389.8h-2.3c-16.4,0.2-30.7,11.4-34.6,27.4c-5.2,19-24.8,30.2-43.9,25
		c-12.1-3.3-21.6-12.8-25-25c-3.9-16-18.2-27.2-34.6-27.4h-2.3c-49.2,0.1-89.1,39.9-89.3,89.3v285.5c0,29.6,24,53.6,53.6,53.6l0,0
		h38c16.4-0.1,30.7-11.4,34.6-27.4c5.2-19,24.8-30.2,43.9-25c12.1,3.3,21.6,12.8,25,25c3.9,16,18.2,27.2,34.6,27.4h38
		c29.6,0,53.6-24,53.6-53.6V479C163.8,429.8,124,389.9,74.6,389.8 M110.3,782.4l-38.2-1.2c-10.4-38-49.7-60.3-87.8-49.8
		c-24.6,6.8-43.8,26.2-50.2,50.9h-38c-9.9,0-17.8-8-17.8-17.8v-71.4H-86c9.9,0,17.9-8,17.9-17.9c0-9.9-8-17.9-17.9-17.9l0,0h-35.7
		V478.8c0-29.6,24-53.6,53.6-53.6l0,0l2.6,1.2c8.6,30.9,36.7,52.4,68.8,52.4c32.5-0.3,60.9-22.2,69.4-53.6h1.9
		c29.6,0,53.6,24,53.6,53.6v178.4H92.5c-9.9,0-17.9,8-17.9,17.9c0,9.9,8,17.9,17.9,17.9h35.7v71.4
		C128.2,774.4,120.2,782.4,110.3,782.4"/>
	<path id="Trazado_254-2" class="st0" d="M21.2,657.5h-35.7c-9.9,0-17.9,8-17.9,17.9c0,9.9,8,17.9,17.9,17.9h35.7
		c9.9,0,17.9-8,17.9-17.9C39.1,665.5,31,657.5,21.2,657.5L21.2,657.5"/>
</g>
</svg>
