<?xml version="1.0" encoding="utf-8"?>
<!-- Generator: Adobe Illustrator 27.0.1, SVG Export Plug-In . SVG Version: 6.00 Build 0)  -->
<svg version="1.1" id="Layer_1" xmlns="http://www.w3.org/2000/svg" xmlns:xlink="http://www.w3.org/1999/xlink" x="0px" y="0px"
	 viewBox="0 0 512 512" style="enable-background:new 0 0 512 512;" xml:space="preserve">
<style type="text/css">
	.st0{fill:#1B3589;}
</style>
<g id="Grupo_15" transform="translate(400.801 -48.541)">
	<path id="Trazado_258" class="st0" d="M-144.8,304.5c54.9,0,99.5-44.5,99.5-99.5s-44.5-99.5-99.5-99.5s-99.5,44.5-99.5,99.5
		C-244.4,259.9-199.8,304.5-144.8,304.5 M-144.8,138.6c36.6,0,66.3,29.7,66.3,66.3s-29.7,66.3-66.3,66.3s-66.3-29.7-66.3-66.3l0,0
		C-211.1,168.3-181.5,138.6-144.8,138.6"/>
	<path id="Trazado_259" class="st0" d="M-144.8,337.7c-82.3,0.1-149.1,66.9-149.2,149.2c0,9.2,7.4,16.6,16.5,16.6
		c9.1,0,16.6-7.4,16.6-16.6c0-64.1,52-116.1,116.1-116.1s116.1,52,116.1,116.1c0,9.2,7.4,16.6,16.6,16.6s16.6-7.4,16.6-16.6
		C4.3,404.5-62.5,337.8-144.8,337.7"/>
</g>
</svg>
